<?xml version="1.0" encoding="UTF-8" standalone="no"?><!DOCTYPE svg PUBLIC "-//W3C//DTD SVG 1.1//EN" "http://www.w3.org/Graphics/SVG/1.1/DTD/svg11.dtd"><svg width="100%" height="100%" viewBox="0 0 183 183" version="1.1" xmlns="http://www.w3.org/2000/svg" xmlns:xlink="http://www.w3.org/1999/xlink" xml:space="preserve" xmlns:serif="http://www.serif.com/" style="fill-rule:evenodd;clip-rule:evenodd;stroke-linecap:round;stroke-linejoin:round;stroke-miterlimit:1.5;"><g><circle cx="91.436" cy="91.436" r="91.436" style="fill:#ffd804;"/><path d="M182.873,91.436c-0,50.499 -40.938,91.437 -91.437,91.437l0,-91.437l91.437,0Z" style="fill:#dbb900;"/><circle cx="91.436" cy="91.436" r="64.643" style="fill:#ffd804;"/><clipPath id="_clip1"><circle cx="91.436" cy="91.436" r="64.643"/></clipPath><g clip-path="url(#_clip1)"><circle cx="91.436" cy="91.436" r="64.643" style="fill:#fff;"/><path d="M91.436,156.079c35.701,-0 64.643,-28.942 64.643,-64.643c-0,-35.701 -28.942,-64.642 -64.643,-64.642l0,129.285Z" style="fill:#dadada;"/></g><circle cx="91.436" cy="91.436" r="64.643" style="fill:none;stroke:#4723d9;stroke-width:10px;"/><circle cx="91.436" cy="43.105" r="4.396" style="fill:#a0a0a0;"/><circle cx="57.543" cy="60.729" r="4.396" style="fill:#a0a0a0;"/><circle cx="125.601" cy="60.729" r="4.396" style="fill:#a0a0a0;"/><circle cx="91.436" cy="139.633" r="4.396" style="fill:#a0a0a0;"/><circle cx="57.543" cy="124.449" r="4.396" style="fill:#a0a0a0;"/><circle cx="125.601" cy="124.449" r="4.396" style="fill:#a0a0a0;"/><circle cx="140.629" cy="91.436" r="4.396" style="fill:#a0a0a0;"/><circle cx="42.799" cy="91.436" r="4.396" style="fill:#a0a0a0;"/><text x="57.112px" y="105.971px" style="font-family:'TitilliumWeb-SemiBold', 'Titillium Web';font-weight:600;font-size:41.058px;fill:#2f2f2f;">24h</text></g></svg>